<svg xmlns="http://www.w3.org/2000/svg" viewBox="0 0 509.12 284.49"><defs><style>.cls-1{fill:#fff;}</style></defs><title>Asset 2</title><g id="Layer_2" data-name="Layer 2"><g id="svg"><path class="cls-1" d="M415.34,41.36a18.07,18.07,0,0,0-4-.44,18.59,18.59,0,0,0-3.76.38,18.37,18.37,0,0,0-14.6,18V95.49c-3.63-2.86-6.41-6.44-7.26-11.26s.34-9.9-.63-14.73a17.46,17.46,0,0,0-6-9.43,2.12,2.12,0,0,1-.11.21,38.53,38.53,0,0,1-15.31-19.87c-3.11-8.92-1.48-19.22,2.69-27.69A31.58,31.58,0,0,1,376.61.83a16.65,16.65,0,0,1,4.58.4c6.59,1.63,6.23,9.13,6.79,15.38.16,1.8.27,3.6.31,5.4,0-1.9-.14-3.81-.31-5.71-.56-6.25-.2-13.75-6.79-15.38-6.87-1.71-16.62,2-22.43,5.38C350.7,11,344.5,19.2,341.37,28c-20.05-20-63.76-20.15-83.91,0-3.12-8.79-9.33-17-17.39-21.69-5.8-3.39-15.55-7.09-22.42-5.38-6.59,1.63-6.23,9.13-6.8,15.38a79.89,79.89,0,0,0-.17,12.27c-.09-1.58-.14-3.17-.14-4.76q0-3.6.33-7.2c.56-6.25.2-13.75,6.79-15.38a16.65,16.65,0,0,1,4.58-.4,31.58,31.58,0,0,1,10.19,11.89c4.17,8.47,5.8,18.77,2.69,27.69a38.53,38.53,0,0,1-15.31,19.87l-.22-.41a17.3,17.3,0,0,0-3.72,4.28,16.35,16.35,0,0,0-2.13,5.35c-1,4.83.21,9.88-.64,14.73-1,6-5,10-9.94,13.17-3.78,2.43-7.48,4.37-14,9.27,3.32-.08,9.75-.08,13,1.53,9.1,4.54-13.35,17.35-17.24,20.11,2.77-.82,7.21-1.63,9.92.76,6.29,5.57-3.91,12.92-7.73,16.29l1.24-.34.35-.13v0l-.36.1a32.69,32.69,0,0,0-21.69,30.81l.38,41.86.42,46.75a18.34,18.34,0,0,0,18.36,18.36,17.87,17.87,0,0,0,4.16-.48,18.35,18.35,0,0,0,14.2-17.88v-46.3l-.1-.45H371.15l-143.49-.55c-.13-7.65,3.16-16.58,8.57-21.42a20.37,20.37,0,0,0,3.32-3.24c1.8-2.55,1.78-5.9,2.19-9,1.63-12.09,11.82-22.4,23.76-24.59l.09,0c4.72,4.61,8.46,10.08,10,16.69.69-1.18,1.34-2.63,2.11-3.87a76.46,76.46,0,0,1,4.39-6.56c1.79-2.33,4.25-4.52,7.4-4,6.24,1,9.22,9.14,10.36,14.48,1.14-5.34,3.3-13.48,9.53-14.48,3.16-.51,5.61,1.68,7.4,4a76.46,76.46,0,0,1,4.39,6.56c.77,1.24,1.43,2.69,2.11,3.87,1.53-6.61,5.27-12.08,10-16.69l.08,0c11.94,2.19,22.13,12.5,23.76,24.59.42,3.09.4,6.44,2.2,9a20.3,20.3,0,0,0,3.31,3.24c5.55,4.95,8.87,14.21,8.55,22h58.56V59.28A18.36,18.36,0,0,0,415.34,41.36Z"/><path class="cls-1" d="M341.05,81.37a6.31,6.31,0,1,0-6.31,6.31A6.3,6.3,0,0,0,341.05,81.37Z"/><path class="cls-1" d="M261.51,75.07a6.31,6.31,0,1,0,6.3,6.3A6.31,6.31,0,0,0,261.51,75.07Z"/><path d="M166.49,218.19l.42,46.25a18.89,18.89,0,0,0,14.77,18.4V284a.5.5,0,0,0,1,0v-1a18.78,18.78,0,0,0,3.09.27,18.39,18.39,0,0,0,3.66-.37V284a.5.5,0,0,0,1,0V282.7a18.74,18.74,0,0,0,14.2-18.26V218.19H509.12l-.42-1.06c-2.41-4.1-5.15-8.74-5.86-13.74a38.12,38.12,0,0,1-.28-4.53,34.11,34.11,0,0,0-.43-5.41c-1-5.47-4.66-10.56-11.1-15.56l-.9-.69a23.9,23.9,0,0,1-4.74-4.34,23.2,23.2,0,0,1-2.7-5.33c-.42-1-.86-2.11-1.36-3.13A22.41,22.41,0,0,0,463,152.22l-.47,0a45.33,45.33,0,0,0,5-5.5,10.15,10.15,0,0,0,2.07-4.21A4.54,4.54,0,0,0,468,138a4.74,4.74,0,0,0-4-.87c-3,.66-5.87,4-8,7.36.36-3.18.29-6.74-1.36-9.77-.82-1.49-1.71-2.16-2.64-2-1.62.28-2.46,3-2.69,4.59a24.18,24.18,0,0,0,.16,7.49,22.18,22.18,0,0,0,.63,2.53,14.18,14.18,0,0,1,.76,3.7,11.82,11.82,0,0,1-2.18-.43,17.23,17.23,0,0,0-1.92-.42,20.39,20.39,0,0,0-16.55,5.52V59.28A19,19,0,0,0,415.84,41V39.92a.5.5,0,0,0-1,0v.85a19.13,19.13,0,0,0-6.75-.05v-.8a.5.5,0,0,0-1,0v1a18.94,18.94,0,0,0-14.6,18.37V94.41a17.26,17.26,0,0,1-6.27-10.27,36.09,36.09,0,0,1-.27-7,34.23,34.23,0,0,0-.36-7.69A17.94,17.94,0,0,0,379.77,60a76.2,76.2,0,0,0,9-36.15l0-1.81h0c0-.58,0-1.16-.06-1.76-.06-1.29-.13-2.61-.25-4-.07-.75-.12-1.52-.18-2.29-.39-5.63-.84-12-7-13.53-6.54-1.63-16.16,1.55-22.8,5.43-7.66,4.47-13.94,12.18-17.34,21.22-9.57-9.19-25.09-14.66-41.72-14.67h-.06c-16.87,0-32,5.33-41.73,14.67A41.52,41.52,0,0,0,240.32,5.87C233.69,2,224.07-1.19,217.53.44c-6.14,1.51-6.6,7.88-7,13.5-.05.78-.11,1.56-.18,2.32a80.33,80.33,0,0,0-.18,12.2.66.66,0,0,1,0,.14h0v0c0,.84.11,1.62.19,2.35s.15,1.59.25,2.38h0l.29,2.11c.11.77.25,1.54.39,2.29s.29,1.55.46,2.32A74.3,74.3,0,0,0,219,59.76a17.35,17.35,0,0,0-3.53,4.13,16.69,16.69,0,0,0-2.19,5.51,34.18,34.18,0,0,0-.37,7.68,36.16,36.16,0,0,1-.27,7.06c-.9,5.07-4,9.15-9.72,12.84-1,.64-2,1.24-3,1.88a124.79,124.79,0,0,0-11,7.41.49.49,0,0,0-.17.56.48.48,0,0,0,.48.34c6.2-.15,10.47.35,12.73,1.48a2.79,2.79,0,0,1,1.87,2.28c.24,4.44-11.61,12.07-16.67,15.32-1.1.71-2,1.27-2.51,1.65a.5.5,0,0,0,.43.89c3-.88,7-1.48,9.45.65a4.71,4.71,0,0,1,1.83,3.67c0,3.83-4.94,8-8.18,10.7-.51.43-1,.82-1.38,1.18a.38.38,0,0,0-.12.17,33.11,33.11,0,0,0-15.15,12.65.55.55,0,0,0-.06-.18,8.35,8.35,0,0,0-7.87-3.34,12.88,12.88,0,0,0-8.62-10.78c-.39-.13-.79-.25-1.19-.36a7.62,7.62,0,0,1-3-1.31c-1.59-1.36-1.71-3.74-1.82-6.05,0-.46-.05-.91-.08-1.36-.69-9.06-8.59-17.45-18.39-19.51a31.76,31.76,0,0,0-20.19,2.94,103.75,103.75,0,0,0,.69-19c-.11-1.34-.43-3.21-1.91-3.94-2-.95-4,.79-5.15,2.93-1.28,2.36-4,11-5.08,18.83-2.33-3.29-5.17-6.07-6.78-7-2.37-1.36-5.62-1.65-7.27.42a5.39,5.39,0,0,0-1,2.42c-.35,2,.41,5.08,2,8.23a30.48,30.48,0,0,0-15,4.33A31.06,31.06,0,0,0,56.09,152.1v.18a5.52,5.52,0,0,1-.43,3,5.18,5.18,0,0,1-1.91,1.55l-.27.16A22.05,22.05,0,0,0,44,168.8c-.34,1-.63,2.14-.91,3.21-1,3.61-1.94,7.34-5,9a19.41,19.41,0,0,1-3.17,1.11,19.66,19.66,0,0,0-5.56,2.27c-2.78,1.95-3.81,4.61-4.8,7.19s-1.89,4.88-4.33,6.68A16.89,16.89,0,0,1,15,200.5c-.9.27-1.83.56-2.72.9A19.53,19.53,0,0,0,0,216.89a.47.47,0,0,0,.08.3m407-175.25V56.67a.5.5,0,1,0,1,0V41.73a18.24,18.24,0,0,1,6.75.05V56.67a.5.5,0,1,0,1,0V42a18,18,0,0,1,13.37,17.27V217.19H371.66c.17-8.15-3.37-17.06-8.73-21.84-.26-.24-.53-.47-.8-.7a13.77,13.77,0,0,1-2.43-2.46c-1.37-1.94-1.64-4.46-1.9-6.9-.07-.63-.13-1.25-.22-1.87-1.6-11.93-11.33-22.22-23.23-24.8a67.87,67.87,0,0,1,9.74-7.48,58.41,58.41,0,0,1,31.69-9.35h.36c11.34.07,23.5.6,35.49,4.05a.49.49,0,0,0,.58-.24.5.5,0,0,0-.11-.61c-.4-.36-.87-.76-1.39-1.19-3.23-2.74-8.12-6.87-8.16-10.69a4.68,4.68,0,0,1,1.83-3.66c2.42-2.14,6.47-1.54,9.45-.66a.5.5,0,0,0,.43-.89c-.54-.38-1.41-.94-2.51-1.65-5.06-3.25-16.92-10.88-16.68-15.32a2.81,2.81,0,0,1,1.87-2.28c2.26-1.13,6.54-1.63,12.74-1.48a.53.53,0,0,0,.48-.34.5.5,0,0,0-.17-.56,129.86,129.86,0,0,0-11-7.42c-1-.63-2-1.23-3-1.87s-1.67-1.13-2.46-1.74v-36A17.94,17.94,0,0,1,407.09,41.94Zm-209.8,91.18a5.72,5.72,0,0,0-2.17-4.42c-2-1.8-5-1.94-7.65-1.5l.16-.1c6.08-3.92,17.4-11.2,17.13-16.22a3.76,3.76,0,0,0-2.43-3.13c-2.2-1.1-6.12-1.63-11.64-1.6,4.13-3,7.07-4.83,9.7-6.44,1-.64,2-1.24,3-1.89,6-3.85,9.22-8.14,10.16-13.5a36.12,36.12,0,0,0,.29-7.26,33.2,33.2,0,0,1,.35-7.46,15.82,15.82,0,0,1,2.07-5.19,16.24,16.24,0,0,1,3.17-3.76.56.56,0,0,0,.2.11l.14,0a.53.53,0,0,0,.27-.08,39.23,39.23,0,0,0,15.51-20.12c2.93-8.4,1.94-18.63-2.71-28.08a31.93,31.93,0,0,0-9.44-11.4,42.5,42.5,0,0,1,16.38,5.63C247.49,11.21,253.75,19,257,28.16a.51.51,0,0,0,.36.32.47.47,0,0,0,.46-.14c9.35-9.35,24.89-14.92,41.58-14.92h.06c16.69,0,32.23,5.59,41.57,14.92a.47.47,0,0,0,.46.14.51.51,0,0,0,.36-.32C345.1,19,351.35,11.21,359,6.73a42.59,42.59,0,0,1,16.4-5.63A31.93,31.93,0,0,0,366,12.5c-4.65,9.45-5.64,19.68-2.71,28.08A39.18,39.18,0,0,0,378.77,60.7a.5.5,0,0,0,.26.08l.13,0a16.78,16.78,0,0,1,5.45,8.84,33.2,33.2,0,0,1,.34,7.46,36.12,36.12,0,0,0,.29,7.26c.78,4.45,3.22,8.24,7.44,11.56a32.84,32.84,0,0,0,2.73,1.94c1,.64,2,1.25,3,1.89,2.63,1.61,5.57,3.41,9.7,6.44-5.52,0-9.44.5-11.64,1.6a3.75,3.75,0,0,0-2.42,3.13c-.28,5,11.05,12.3,17.13,16.22l.16.1c-3.31-.54-5.92,0-7.65,1.5a5.72,5.72,0,0,0-2.17,4.42c.05,4.15,4.83,8.32,8.2,11.17-11.41-2.95-22.87-3.44-33.61-3.5a59.21,59.21,0,0,0-32.59,9.51,66.78,66.78,0,0,0-10.41,8.09h-.09l-.15.14c-5,4.91-8.25,10.06-9.81,15.69l-.25-.47c-.4-.77-.81-1.57-1.27-2.3a78.13,78.13,0,0,0-4.41-6.6c-2.52-3.28-5.09-4.65-7.88-4.2-5.55.89-8,7-9.47,12.79-1.26-4.62-4.19-11.82-10.26-12.79-2.78-.46-5.36.92-7.88,4.2a77.45,77.45,0,0,0-4.42,6.6c-.44.71-.84,1.48-1.22,2.23l-.29.54c-1.55-5.63-4.77-10.77-9.8-15.69l-.24-.21-.07,0a67.42,67.42,0,0,0-10.35-8,59.36,59.36,0,0,0-32.23-9.51h-.35c-10.72.07-22.19.54-33.62,3.5C192.45,141.44,197.24,137.27,197.29,133.12Zm6.34,85v46.3a17.74,17.74,0,0,1-13.2,17.22V267.24a.5.5,0,0,0-1,0V281.9a17.81,17.81,0,0,1-6.75.12V267.24a.5.5,0,0,0-1,0v14.57a17.89,17.89,0,0,1-13.77-17.37l-.8-88.61a32.28,32.28,0,0,1,21.35-30.34l.33-.09c11.5-3.06,23.1-3.54,33.91-3.61h.35a58.41,58.41,0,0,1,31.69,9.35,67.87,67.87,0,0,1,9.74,7.48c-11.93,2.61-21.63,12.89-23.24,24.81-.08.6-.14,1.21-.2,1.83-.26,2.45-.52,5-1.9,6.93a13.91,13.91,0,0,1-2.48,2.49l-.76.67c-5.29,4.72-8.88,13.69-8.74,21.8v0H204v.47A.49.49,0,0,0,203.63,218.14Z"/><path d="M248.45,115.75a17.38,17.38,0,0,0,16.47-11.64,40.49,40.49,0,0,1,7.16-12.72,61.79,61.79,0,0,0,4.59-6.65,19.33,19.33,0,0,0,1.05-16.6,13.8,13.8,0,0,0-8.27-8,17.32,17.32,0,0,0-13.92,1.55c-4.3,2.48-7.28,6.59-7.9,9.19l-.08.38a3.94,3.94,0,0,1-.67,1.74,3.89,3.89,0,0,1-2.34,1c-1.41.27-3.16.61-3.3,3a10.22,10.22,0,0,0,0,1.47,9.07,9.07,0,0,1,.06,1.26c-.14,2.42-1.92,3.72-3.8,5.1a16.71,16.71,0,0,0-2.78,2.38,17.18,17.18,0,0,0-3.83,11.06A17.53,17.53,0,0,0,248.45,115.75Zm7.25-34.38a5.81,5.81,0,1,1,5.81,5.81A5.81,5.81,0,0,1,255.7,81.37Z"/><path d="M324.17,91.39a40.69,40.69,0,0,1,7.16,12.72,17.5,17.5,0,0,0,34-5.88,17.17,17.17,0,0,0-3.83-11,15.82,15.82,0,0,0-2.78-2.38c-1.89-1.39-3.67-2.69-3.81-5.11A8.17,8.17,0,0,1,355,78.4,9.68,9.68,0,0,0,355,77c-.15-2.42-1.9-2.76-3.31-3a3.89,3.89,0,0,1-2.34-1,3.94,3.94,0,0,1-.67-1.74l-.08-.39c-.63-2.6-3.61-6.7-7.91-9.19a17.31,17.31,0,0,0-13.9-1.54,13.79,13.79,0,0,0-8.28,8,19.33,19.33,0,0,0,1.05,16.6A60.38,60.38,0,0,0,324.17,91.39Zm4.77-10a5.81,5.81,0,1,1,5.8,5.81A5.8,5.8,0,0,1,328.94,81.37Z"/><path d="M274.66,107.83c-.31,5.8,3.48,9.15,7.43,10.55v.67a.41.41,0,0,0,0,.11,13.33,13.33,0,0,0,6,8.33,18.05,18.05,0,0,0,10,2.6h.44a17.89,17.89,0,0,0,9.55-2.61,13.42,13.42,0,0,0,6.05-8.33.41.41,0,0,0,0-.11v-.68c3.95-1.39,7.73-4.74,7.42-10.54-.35-6.24-4.09-12.67-9.17-17.23l.07-.7a5.82,5.82,0,0,0-.38-2.65,13.52,13.52,0,0,0-2.05-3.18c-.33-.42-.66-.84-1-1.28-2.29-3.25-3.15-7.11-4.05-11.2a44.41,44.41,0,0,0-2.53-8.65,4.63,4.63,0,0,0-8.78,0,45.37,45.37,0,0,0-2.55,8.67c-.9,4.08-1.75,7.93-4,11.18-.3.43-.63.85-1,1.27a13.24,13.24,0,0,0-2,3.19,5.57,5.57,0,0,0-.39,2.65l.07.7C278.75,95.16,275,101.59,274.66,107.83Zm23.47-22.54c10.31,0,21.86,11.62,22.46,22.6.33,6.1-4.39,9.22-8.54,10-4.94,1-10.88-.77-13.07-5.91a6.8,6.8,0,1,0-1.7,0c-2.19,5.13-8.13,6.88-13.07,5.91-4.15-.82-8.88-3.94-8.55-10C276.26,96.91,287.81,85.29,298.13,85.29Z"/></g></g></svg>